<?xml version="1.0" encoding="UTF-8"?>
<svg id="Layer_1" xmlns="http://www.w3.org/2000/svg" xmlns:xlink="http://www.w3.org/1999/xlink" version="1.1" viewBox="0 0 1920 1080">
  <!-- Generator: Adobe Illustrator 30.0.0, SVG Export Plug-In . SVG Version: 2.1.1 Build 123)  -->
  <defs>
    <style>
      .st0 {
        fill: none;
      }

      .st1 {
        fill: #91cc52;
      }

      .st2 {
        fill: #209146;
      }

      .st3 {
        clip-path: url(#clippath);
      }
    </style>
    <clipPath id="clippath">
      <rect class="st0" width="1920" height="1080"/>
    </clipPath>
  </defs>
  <rect class="st1" width="1920" height="1080"/>
  <g class="st3">
    <g>
      <path class="st2" d="M1947.22,1002.83c.02-.58,0-1.14,0-1.7-.54-100.03-3.03-200.18-7.47-296.78-.36-8.39-.67-17.04-.96-25.37-1.44-42.72-2.92-86.86-17.25-120.05-15.77-36.51-44.92-54.84-91.71-57.7-16.01-.99-34.58-1.48-55.21-1.48-53.56,0-116.35,3.37-163.9,8.79-78.7,9.01-194.22,66.79-277.29,113.68-37.25,21.04-60.35,36.31-65.55,82.76-4.37,39.02,35.59,95.97,62.01,133.66,4.02,5.76,7.83,11.17,11.21,16.17,51.58,75.78,104.37,151.29,157.31,225.19h371.62c42.63,0,77.19-34.54,77.19-77.17Z"/>
      <path class="st2" d="M605.33-34H-27c.83,29.11,2,59.79,3.48,92.11,2.74,59.37,11.3,84.8,18.01,95.67,11.1,17.96,27.29,19.02,49.72,20.47l1.44.11c9.58.63,19.17.97,28.44.97,90.88,0,155.76-29.96,237.89-67.87,7.83-3.63,15.79-7.31,23.93-11.03l2.91-1.34c82.85-37.88,176.77-80.81,258.25-124.63,2.82-1.52,5.56-3,8.25-4.46Z"/>
      <path class="st2" d="M578.08,1080c-1.61-77.84-7.98-171.55-36.85-208.91-39.31-50.84-149-51.07-221.58-51.22-12.22-.02-23.79-.05-33.95-.31-10.21-.25-22.36-.79-35.21-1.37-24.22-1.1-51.69-2.33-79.88-2.33-75.33,0-123.8,9.37-148.18,28.62-44.16,34.87-44.85,121.69-45.33,185.07v.36c10.95,29.27,39.18,50.08,72.28,50.08h528.7Z"/>
      <path class="st2" d="M1467.21,1080c-35.64-48.91-70.08-94.96-103.07-137.84-1.99-2.6-4.19-5.49-6.57-8.59-28.89-37.81-89.01-116.47-123.91-128.93-4.8-1.71-9.98-2.58-15.39-2.58-32.7,0-69.59,30.21-96.5,52.26-2.26,1.86-4.44,3.65-6.55,5.36-70.04,56.85-80.98,115.52-96.1,196.71-1.43,7.67-2.89,15.54-4.44,23.61h452.56-.04Z"/>
      <path class="st2" d="M620.34,485.53c-14.6-22.59-41.09-39.96-77.8-64.03l-2-1.3c-68.11-44.67-143.89-87.15-217.18-128.26l-5.87-3.28c-7.42-4.15-15.16-8.61-23.39-13.34-49.12-28.24-110.28-63.4-159.93-68.9-13.5-1.5-31.62-2.33-51.05-2.33s-39.27.85-54.12,2.31c-10.3,1.03-24.83,6.08-31.26,12.8-20.75,21.64-20.81,93.52-20.86,136.47,0,9.1,0,16.96-.2,23.44l-.07,3.23c-2.29,82.73-4.66,168.27,0,251.45,3.1,55.42,12.47,87.91,31.31,108.61,19.24,21.13,50.57,32.7,104.74,38.69,62.08,6.84,130.95,7.53,197.52,8.19,11.71.13,23.28.25,34.61.4,5.97.07,12.83.23,20.12.4,13.9.32,29.67.69,46.49.69,31.26,0,126.35,0,158.42-31.78,26.78-26.53,50.78-126.47,59.75-175.61,8.32-45.69,5.56-74.97-9.26-97.87l.02.04Z"/>
      <path class="st2" d="M1262.63-34h-468.39c26.53,48.08,69.53,105.34,95.77,140.28l1.39,1.86c1.41,1.86,2.91,3.9,4.51,6.06,16.22,21.85,46.45,62.55,70.17,67.42,3.1.63,6.37.94,9.75.94,13.19,0,27.16-4.87,40.57-11.53,13.37-6.68,26.17-15.11,36.96-22.23l1.26-.83c20.23-13.35,41.42-29.27,61.9-44.68,4.85-3.63,9.67-7.25,14.37-10.79,7.89-5.88,15.66-11.57,23.17-17.04,34.83-25.48,64.9-47.48,87.24-75.42,8.55-10.72,15.65-21.98,21.35-34.04h-.02Z"/>
      <path class="st2" d="M1659.34-34h-335.08c4.66,11.89,11.6,22.38,21.95,30.46,31.47,24.53,54.27,34.09,81.3,34.09,15.14,0,32.56-2.91,58.18-9.69,55.17-14.64,114.89-34.18,173.63-54.86h.02Z"/>
      <path class="st2" d="M1245.65,655.63c-1.44-18.79-26.28-49.18-35.62-60.64-53.35-65.29-124.34-138.35-161.9-176.05-1.95-1.95-3.88-3.9-5.79-5.87-30.93-31.2-60.17-60.71-99.53-60.71-8.86,0-18.16,1.53-27.65,4.55-19.06,6.05-63.54,29.65-110.75,58.78-49.63,30.61-88.12,58.45-100.45,72.66-34.33,39.56-57.91,147.75-69.25,199.73l-.47,2.22c-6.91,31.67-12.38,56.72-7.4,75.42,5.04,18.88,21.69,32.38,54.01,43.76,47.41,16.66,114.22,29.65,167.89,40.08,9.31,1.82,18.34,3.56,26.93,5.27,7.04,1.41,14.15,2.91,21.67,4.49,22.9,4.85,46.6,9.85,68.02,11.66,11.95,1.01,21.98,1.48,30.68,1.48,38.91,0,59.18-9.26,100.32-37.09,40.75-27.54,121.04-86.37,133.4-111.84,7.8-16.03,17.05-52.53,15.88-67.91Z"/>
      <path class="st2" d="M959.14,918.25c-35.95-26.46-162.44-52.9-233.74-63.34-15.47-2.27-31.76-4.37-46.09-4.37-19.45,0-33.15,3.93-43.1,12.4-11.51,9.82-19.09,26.66-23.19,51.47-8.61,52.25-6.86,109.63-4.66,165.6h374.91c.69-5.05,1.32-10.09,1.93-15.11.23-2.11.52-4.28.79-6.48,6.1-49.12,13.72-110.3-26.85-140.17Z"/>
      <path class="st2" d="M1942.06,79.64c-.23-6.12-.27-13.14-.34-20.57-.23-24.99-.49-56.07-7.38-81.45-1.14-4.17-2.42-8.05-3.84-11.62h-188.08c-32.11,10.72-62.35,21.8-83.79,29.65-6.05,2.22-11.53,4.2-16.31,5.96-6.7,2.44-14.15,4.96-22.02,7.65-58.76,20.09-147.59,50.41-150.67,109.8-2.56,49.5,57.01,226.65,80.29,277.96,11.78,25.99,23.28,42.55,37.21,53.67,15.03,11.98,34.4,18.64,60.94,20.92,17.38,1.5,44.88,2.38,73.61,2.38,62.8,0,140.3-4.28,169.42-16.3,48.73-20.1,49.7-85.4,50.48-137.86.11-7.99.23-15.52.49-22.65,2.83-72.71,2.83-143.85,0-217.52v-.02Z"/>
      <path class="st2" d="M1512.13,395.16c-18.99-80.62-58.62-209.11-92.11-284.6-18.55-41.89-36.94-60.4-81.95-82.58-13.28-6.53-22.5-9.33-30.84-9.33-10.43,0-20.74,4.46-37.28,13.23-30.45,16.15-63.06,40.77-94.58,64.57-10.12,7.63-19.67,14.87-28.98,21.66-10.38,7.56-21.67,15.61-33.64,24.11-39.79,28.28-84.89,60.35-114.44,88.79-19.94,19.2-25.05,38.58-16.08,61.02,8.34,20.88,27.14,41.06,45.33,60.6,4.94,5.32,9.64,10.36,14.13,15.39,35.16,39.65,75.22,82.93,115.9,125.17,2.85,2.94,5.97,6.24,9.33,9.8,30.08,31.71,80.42,84.78,114.58,89.48,4.22.58,8.23.85,12.24.85,15.21,0,28.1-4.22,43.33-9.75,37.81-13.72,146.31-65.38,169.26-92.38,22.27-26.2,13.16-64.93,5.85-96.05l-.04.02Z"/>
      <path class="st2" d="M934,223.64c-34.43-61.63-100.36-148.11-127.12-182.42-40.23-51.63-62.57-67.35-95.54-67.35-18.12,0-40.93,5.18-73.96,16.78-30.32,10.67-62.19,25.64-93,40.12-8.92,4.19-17.32,8.16-25.77,12.04-11.57,5.32-23.93,10.9-37.03,16.8-59.65,26.89-133.89,60.37-181.19,92.96-23.35,16.12-35.16,30.77-35.05,43.57.16,20.37,29.78,40.12,61.14,61.02l.76.51c22.23,14.82,46.89,29.11,70.71,42.92,8.64,5,17.58,10.18,26.15,15.25,6.7,3.97,14.42,8.61,22.59,13.52,63.33,38.02,169.3,101.69,223.58,105.11,2.02.11,4.11.2,6.17.2,27.83,0,53.83-11.46,77.8-23.8,52.68-27.18,128.35-70.8,169.95-102.27,16.15-12.24,24.09-24.27,24.98-37.88.79-12.27-3.88-26.76-15.21-46.99l.04-.05Z"/>
    </g>
  </g>
</svg>